<?xml version="1.0" encoding="UTF-8"?>
<svg id="Layer_2" data-name="Layer 2" xmlns="http://www.w3.org/2000/svg" viewBox="0 0 1132.89 1057.52">
  <defs>
    <style>
      .cls-1 {
        fill: none;
        stroke: #fff;
        stroke-miterlimit: 10;
        stroke-width: 3.6px;
      }
    </style>
  </defs>
  <g id="Layer_1-2" data-name="Layer 1">
    <path class="cls-1" d="M55.62,136.42c0-45.54-6.06-94.11-50.05-118.39C-.49,13.51-.49,1.34,8.53,1.34h292.89c21.26,0,27.44,4.57,31.88,15.2l177.59,415.86c41.03,92.56,63.77,109.25,110.85,0L799.34,19.57c6.06-15.2,12.11-18.23,30.28-18.23h294.5c6.06,0,7.54,9.08,3.09,15.2-68.34,68.28-71.43,303.52-71.43,420.37v156.33c0,122.97,3.09,365.81,71.43,434.09,7.54,7.6,4.45,28.86-3.09,28.86h-250.38c-45.6,0-65.38-21.26-65.38-69.82V417.2c0-311.12-101.59-95.59-136.56-12.11l-133.59,312.67c-33.37,75.88-145.7,59.13-171.41,1.48L155.84,232.07c-44.12-100.23-63.77-78.97-63.77,34.91v227.64c0,500.88,705.66,253.47,684.53,523.62-1.61,22.74-7.66,37.94-44.12,37.94H8.53c-9.02,0-9.02-12.11-2.97-16.68,40.91-24.28,48.57-68.34,48.57-110.79l1.48-792.29Z"/>
  </g>
</svg>